<svg id="_x33_0" enable-background="new 0 0 64 64" height="80px" width="80px" fill="#3A2E7E" viewBox="0 0 64 64" xmlns="http://www.w3.org/2000/svg"><g><path d="m37 55v8h26.388l-2.667-8h-3.721v-18c0-1.103-.897-2-2-2h-10c-1.103 0-2 .897-2 2v4h-30.349c.226-.636.349-1.308.349-2 0-1.718-.73-3.266-1.891-4.361l4.326-6.488c1.075.538 2.283.849 3.565.849 2.066 0 3.945-.794 5.366-2.084l5.055 4.333c-.261.531-.421 1.12-.421 1.751 0 2.206 1.794 4 4 4s4-1.794 4-4c0-.83-.255-1.601-.689-2.241l2.551-2.891c2.533 1.956 5.697 3.132 9.138 3.132 8.271 0 15-6.729 15-15s-6.729-15-15-15-15 6.729-15 15c0 4.112 1.665 7.841 4.354 10.554l-2.554 2.894c-.543-.277-1.149-.448-1.8-.448-.85 0-1.636.271-2.285.725l-5.043-4.322c.837-1.264 1.328-2.777 1.328-4.403 0-4.411-3.589-8-8-8s-8 3.589-8 8c0 2.412 1.078 4.573 2.771 6.041l-4.324 6.486c-.748-.336-1.575-.527-2.447-.527-3.309 0-6 2.691-6 6 0 2.559 1.643 4.805 4 5.642v2.358c0 1.103.897 2 2 2h36v6zm11-52c7.168 0 13 5.832 13 13s-5.832 13-13 13-13-5.832-13-13 5.832-13 13-13zm-15 28c1.103 0 2 .897 2 2s-.897 2-2 2-2-.897-2-2 .897-2 2-2zm-20-10c0-3.309 2.691-6 6-6s6 2.691 6 6-2.691 6-6 6-6-2.691-6-6zm47.612 40h-21.612v-4h20.279zm-5.612-10h-10v-10h10zm0-14v2h-10v-2zm-49.927 5.494c-1.244-.691-2.073-2.013-2.073-3.494 0-2.206 1.794-4 4-4s4 1.794 4 4c0 .713-.194 1.394-.547 2h-3.453c-.927 0-1.701.637-1.927 1.494zm1.927 4.506v-4h36v4zm38 6h10v2h-10z"/><path d="m29 63h6v-6h-6zm2-4h2v2h-2z"/><path d="m21 63h6v-6h-6zm2-4h2v2h-2z"/><path d="m13 63h6v-6h-6zm2-4h2v2h-2z"/><path d="m5 63h6v-6h-6zm2-4h2v2h-2z"/><path d="m47 24.899v2.101h2v-2h4v-5c0-2.757-2.243-5-5-5-1.654 0-3-1.346-3-3v-3h3c1.654 0 3 1.346 3 3v3h2v-3c0-2.414-1.721-4.434-4-4.899v-2.101h-2v2h-4v5c0 2.757 2.243 5 5 5 1.654 0 3 1.346 3 3v3h-3c-1.654 0-3-1.346-3-3v-3h-2v3c0 2.414 1.721 4.434 4 4.899z"/></g></svg>