<svg id="outline" height="80px" width="80px" fill="#3A2E7E" viewBox="0 0 512 512"  xmlns="http://www.w3.org/2000/svg"><path d="m488 96h-224v-80h-16v80h-168a40.045 40.045 0 0 0 -40 40v216h-16a8 8 0 0 0 -8 8v34a22.025 22.025 0 0 0 22 22h210v80h16v-80h224a8 8 0 0 0 8-8v-304a8 8 0 0 0 -8-8zm-8 176h-216v-16h176a8 8 0 0 0 8-8 8.009 8.009 0 0 1 8-8 8 8 0 0 0 8-8v-80a8 8 0 0 0 -8-8 8.009 8.009 0 0 1 -8-8 8 8 0 0 0 -8-8h-176v-16h216zm0 32h-136v-16h136zm-136 48h136v16h-136zm0-16v-16h136v16zm2.794-188.248c-.941-1.317-1.925-2.558-2.933-3.752h89.51a24.115 24.115 0 0 0 14.629 14.629v66.742a24.115 24.115 0 0 0 -14.629 14.629h-89.51c1.008-1.194 1.992-2.435 2.933-3.752 8.516-11.923 13.206-27.637 13.206-44.248s-4.69-32.325-13.206-44.248zm-2.794 44.248c0 26.019-14.654 48-32 48s-32-21.981-32-48 14.654-48 32-48 32 21.981 32 48zm-66.794-44.248c-8.516 11.923-13.206 27.637-13.206 44.248s4.69 32.325 13.206 44.248c.941 1.317 1.925 2.558 2.933 3.752h-16.139v-96h16.139c-1.008 1.194-1.992 2.435-2.933 3.752zm2.794 188.248h-16v-16h16zm-112-64v-80h80v80zm80-96h-16v-16h-16v16h-16v-16h-16v16h-24a8 8 0 0 0 -8 8v24h-16v16h16v16h-16v16h16v24a8 8 0 0 0 8 8h24v16h16v-16h16v16h16v-16h16v32h-160v-176h160zm16 176h16v16h-16zm16-48h-16v-16h16zm-224-168a24.028 24.028 0 0 1 24-24h168v16h-168a8 8 0 0 0 -8 8v192a8 8 0 0 0 8 8h168v16h-192zm189.853 232a16.01 16.01 0 0 1 -13.853 8h-48a16.01 16.01 0 0 1 -13.853-8zm-213.853 26v-26h121.013a32.056 32.056 0 0 0 30.987 24h48a31.793 31.793 0 0 0 16-4.305v12.305h-210a6.006 6.006 0 0 1 -6-6zm232-10h16v16h-16zm32 16v-112h32v112zm48 0v-16h136v16z"/><path d="m288 48h48v16h-48z"/><path d="m392 64h72v16h-72z"/><path d="m352 16h64v16h-64z"/><path d="m432 16h16v16h-16z"/><path d="m480 64h16v16h-16z"/><path d="m408 480h16v16h-16z"/><path d="m344 480h48v16h-48z"/><path d="m280 432h64v16h-64z"/><path d="m360 432h16v16h-16z"/><path d="m464 448h16v16h-16z"/><path d="m352 48h16v16h-16z"/><path d="m400 448h48v16h-48z"/><path d="m224 208h-32a8 8 0 0 0 -8 8v32a8 8 0 0 0 8 8h32a8 8 0 0 0 8-8v-32a8 8 0 0 0 -8-8zm-8 32h-16v-16h16z"/></svg>