<svg id="Layer_3" enable-background="new 0 0 64 64" viewBox="0 0 64 64" height="80px" width="80px" fill="#3A2E7E" xmlns="http://www.w3.org/2000/svg"><g><path d="m62 1h-30c-.552 0-1 .448-1 1v20c0 .552.448 1 1 1h12v14h-2c-3.525 0-6.574 2.042-8.05 5h-4.95v-1c0-.552-.448-1-1-1h-27v2h26v16h-26v2h27c.552 0 1-.448 1-1v-1h4.95c1.476 2.958 4.526 5 8.05 5h5v-.051c.165.024.329.051.5.051h7c1.93 0 3.5-1.57 3.5-3.5 0-.612-.172-1.178-.448-1.679 1.414-.45 2.448-1.76 2.448-3.321 0-.612-.172-1.178-.448-1.679 1.414-.45 2.448-1.76 2.448-3.321s-1.034-2.871-2.448-3.321c.276-.501.448-1.067.448-1.679 0-1.93-1.57-3.5-3.5-3.5h-1.601c-.465-2.279-2.484-4-4.899-4v-14h12c.552 0 1-.448 1-1v-20c0-.552-.448-1-1-1zm-7.5 60h-7c-.827 0-1.5-.673-1.5-1.5s.673-1.5 1.5-1.5h7c.827 0 1.5.673 1.5 1.5s-.673 1.5-1.5 1.5zm2-5h-2-7c-.827 0-1.5-.673-1.5-1.5s.673-1.5 1.5-1.5h9c.827 0 1.5.673 1.5 1.5s-.673 1.5-1.5 1.5zm1.5-11.5c0 .827-.673 1.5-1.5 1.5h-1.5v-3h1.5c.827 0 1.5.673 1.5 1.5zm-3.351 3.5h1.851 2c.827 0 1.5.673 1.5 1.5s-.673 1.5-1.5 1.5h-2-9c-.827 0-1.5-.673-1.5-1.5s.673-1.5 1.5-1.5h.851c.564 1.178 1.758 2 3.149 2s2.585-.822 3.149-2zm-8.649-3.5c0-.174.033-.341.089-.5h1.911v2h-.5c-.827 0-1.5-.673-1.5-1.5zm7-2.5v4.5c0 .827-.673 1.5-1.5 1.5s-1.5-.673-1.5-1.5v-3.5c0-.552-.448-1-1-1h-6c-.552 0-1 .448-1 1 0 2.757-2.243 5-5 5v2c3.521 0 6.442-2.612 6.929-6h.111c-.024.165-.04.331-.04.5 0 .98.407 1.864 1.058 2.5-.651.636-1.058 1.52-1.058 2.5s.407 1.864 1.058 2.5c-.651.636-1.058 1.52-1.058 2.5s.407 1.864 1.058 2.5c-.651.636-1.058 1.52-1.058 2.5 0 .539.133 1.044.351 1.5h-2.351c-3.86 0-7-3.14-7-7h-2c0 .688.085 1.356.232 2h-4.232v-12h4.232c-.147.644-.232 1.312-.232 2h2c0-3.86 3.14-7 7-7h8c1.654 0 3 1.346 3 3zm-5-5h-2v-14h2zm13-16h-28v-18h28z"/><path d="m36 17h6c1.654 0 3-1.346 3-3 0-.771-.301-1.468-.78-2 .48-.532.78-1.229.78-2 0-1.654-1.346-3-3-3h-6c-.552 0-1 .448-1 1v4 4c0 .552.448 1 1 1zm6-2h-5v-2h5c.551 0 1 .449 1 1s-.449 1-1 1zm-5-6h5c.551 0 1 .449 1 1s-.449 1-1 1h-5z"/><path d="m46 7h2v10h-2z"/><path d="m50 17h4c2.757 0 5-2.243 5-5s-2.243-5-5-5h-4c-.552 0-1 .448-1 1v8c0 .552.448 1 1 1zm1-8h3c1.654 0 3 1.346 3 3s-1.346 3-3 3h-3z"/><path d="m14 19c-1.103 0-2-.897-2-2h-2c0 1.858 1.28 3.411 3 3.858v2.142h2v-2.142c1.72-.447 3-2 3-3.858 0-2.206-1.794-4-4-4-1.103 0-2-.897-2-2s.897-2 2-2 2 .897 2 2h2c0-1.858-1.28-3.411-3-3.858v-2.142h-2v2.142c-1.72.447-3 2-3 3.858 0 2.206 1.794 4 4 4 1.103 0 2 .897 2 2s-.897 2-2 2z"/><path d="m14 27c7.168 0 13-5.832 13-13s-5.832-13-13-13-13 5.832-13 13 5.832 13 13 13zm0-24c6.065 0 11 4.935 11 11s-4.935 11-11 11-11-4.935-11-11 4.935-11 11-11z"/><path d="m2 28h24v2h-24z"/><path d="m4 31h24v2h-24z"/><path d="m2 34h24v2h-24z"/><path d="m4 37h24v2h-24z"/></g></svg>