<svg id="Layer_3" enable-background="new 0 0 64 64" height="80px" width="80px" fill="#3A2E7E" viewBox="0 0 64 64"  xmlns="http://www.w3.org/2000/svg"><g><path d="m22.789 14c-.318 0-.626-.093-.891-.27l-.898-.599c-1.215-.811-2.785-.811-4 0l-.395.263c-1.005.671-1.605 1.793-1.605 3.001 0 1.988 1.617 3.605 3.605 3.605h.315c.429 0 .832.167 1.135.47l.395.395c.703.703 1.626 1.054 2.549 1.054s1.847-.351 2.549-1.054l.395-.395c.682-.681 1.057-1.586 1.057-2.549v-.315c0-1.989-1.617-3.606-3.605-3.606zm2.211 3.605v.315c0 .429-.167.832-.47 1.135l-.395.395c-.606.606-1.664.606-2.271 0l-.395-.395c-.68-.68-1.585-1.055-2.548-1.055h-.315c-.886 0-1.606-.72-1.606-1.605 0-.538.267-1.038.715-1.336l.395-.263c.54-.361 1.24-.361 1.781 0l.898.599c.594.396 1.286.605 2 .605h.605c.886 0 1.606.72 1.606 1.605z"/><path d="m62 33h-6v-14h1c.404 0 .769-.244.924-.617.155-.374.069-.804-.217-1.09l-4-4c-.391-.391-1.023-.391-1.414 0l-4 4c-.286.286-.372.716-.217 1.09.155.373.52.617.924.617h1v32c0 .552.448 1 1 1h4c.552 0 1-.448 1-1v-13h2v16h-30v-16h2v13c0 .552.448 1 1 1h4c.552 0 1-.448 1-1v-20h1c.404 0 .769-.244.924-.617.155-.374.069-.804-.217-1.09l-4-4c-.391-.391-1.023-.391-1.414 0l-4 4c-.286.286-.372.716-.217 1.09.155.373.52.617.924.617h1v2h-6c-.552 0-1 .448-1 1v6.951c-.334.017-.665.049-1 .049-5.641 0-10.701-2.485-14.184-6.402l1.27-1.27c.589-.589.914-1.373.914-2.207v-1.242c0-.3.117-.581.328-.793l1.758-1.758c.589-.589.914-1.373.914-2.207v-1.242c0-.834-.325-1.618-.914-2.207l-.758-.758c-.211-.212-.328-.493-.328-.793v-1c0-1.721-1.4-3.121-3.121-3.121-.3 0-.581-.117-.793-.328l-2.093-2.093c.248-.499.517-.983.806-1.456.756.561 1.658.877 2.615.877h.172c1.179 0 2.288-.459 3.121-1.293l1-1c.449-.449 1.072-.707 1.707-.707h1.172c1.179 0 2.288-.459 3.121-1.293.449-.449 1.072-.707 1.707-.707h.172c1.179 0 2.288-.459 3.121-1.293.834-.833 1.293-1.942 1.293-3.121v-.336c1.385.223 2.722.601 4 1.11v2.225c0 1.179.459 2.288 1.293 3.121.449.45.707 1.073.707 1.708v.172c0 1.179.459 2.288 1.293 3.121.833.834 1.942 1.293 3.121 1.293h.172c1.179 0 2.288-.459 3.121-1.293l.574-.574c.586 1.283 1.05 2.638 1.339 4.065l1.96-.397c-1.976-9.735-10.631-16.801-20.58-16.801-7.389 0-13.885 3.845-17.629 9.629l-.078.078.019.019c-2.086 3.261-3.312 7.124-3.312 11.274 0 11.58 9.42 21 21 21 .334 0 .666-.034 1-.049v15.049c0 .552.448 1 1 1h10v2h-2v2h22v-2h-2v-2h10c.552 0 1-.448 1-1v-24c0-.552-.448-1-1-1zm-8-15v32h-2v-32c0-.429-.27-.794-.649-.937l1.649-1.649 1.649 1.649c-.379.143-.649.508-.649.937zm-21 9.414 1.649 1.649c-.379.143-.649.508-.649.937v20h-2v-20c0-.429-.27-.794-.649-.937zm5.313-15.141-1.02 1.02c-.449.449-1.072.707-1.707.707h-.172c-.635 0-1.258-.258-1.707-.707s-.707-1.072-.707-1.707v-.172c0-1.179-.459-2.288-1.293-3.121-.449-.449-.707-1.072-.707-1.707v-1.293c3.004 1.624 5.545 4.029 7.313 6.98zm-16.313-9.273c.336 0 .667.027 1 .044v.542c0 .635-.258 1.258-.707 1.707s-1.072.707-1.707.707h-.172c-1.179 0-2.288.459-3.121 1.293-.449.449-1.072.707-1.707.707h-1.172c-1.179 0-2.288.459-3.121 1.293l-1 1c-.449.449-1.072.707-1.707.707h-.172c-.539 0-1.062-.195-1.484-.525 3.475-4.534 8.929-7.475 15.07-7.475zm-17.853 12.561 1.525 1.525c.589.589 1.373.914 2.207.914.618 0 1.121.503 1.121 1.121v1c0 .834.325 1.618.914 2.207l.758.758c.211.212.328.493.328.793v1.242c0 .3-.117.581-.328.793l-1.758 1.758c-.589.589-.914 1.373-.914 2.207v1.242c0 .3-.117.581-.328.793l-1.114 1.114c-2.23-3.113-3.558-6.915-3.558-11.028 0-2.263.418-4.424 1.147-6.439zm45.853 45.439h-14v-2h14zm11-4h-36v-22h5v1h-3c-.552 0-1 .448-1 1v18c0 .552.448 1 1 1h32c.552 0 1-.448 1-1v-18c0-.552-.448-1-1-1h-3v-1h5z"/><path d="m38.293 23.293c-.286.286-.372.716-.217 1.09.155.373.52.617.924.617h1v26c0 .552.448 1 1 1h4c.552 0 1-.448 1-1v-26h1c.404 0 .769-.244.924-.617.155-.374.069-.804-.217-1.09l-4-4c-.391-.391-1.023-.391-1.414 0zm6.356-.23c-.379.143-.649.508-.649.937v26h-2v-26c0-.429-.27-.794-.649-.937l1.649-1.649z"/></g></svg>