<svg viewBox="0 0 60 60" height="80px" width="80px" fill="#3A2E7E" xmlns="http://www.w3.org/2000/svg"><g id="Page-1" fill-rule="evenodd"><g id="015---Online-Auction" fill-rule="nonzero"><path id="Shape" d="m57 0h-54c-1.65685425 0-3 1.34314575-3 3v41c0 1.6568542 1.34314575 3 3 3h17v4c-3.8641657.0044086-6.9955914 3.1358343-7 7 0 1.1045695.8954305 2 2 2h30c1.1045695 0 2-.8954305 2-2-.0044086-3.8641657-3.1358343-6.9955914-7-7v-4h17c1.6568542 0 3-1.3431458 3-3v-41c0-1.65685425-1.3431458-3-3-3zm-12 58h-30c.0033061-2.7600532 2.2399468-4.9966939 5-5h20c2.7598251.0038557 4.9961443 2.2401749 5 5zm-7-7h-16v-4h16zm19-6h-54c-.55228475 0-1-.4477153-1-1v-5h34c.5522847 0 1-.4477153 1-1s-.4477153-1-1-1h-34v-34c0-.55228475.44771525-1 1-1h54c.5522847 0 1 .44771525 1 1v34h-2c-.5522847 0-1 .4477153-1 1s.4477153 1 1 1h2v5c0 .5522847-.4477153 1-1 1z"/><path id="Shape" d="m34.332 20.056-3-1.686-9.7-9.7-1.72-3.06c-.3920665-.60611833-1.0340624-1.00576172-1.751-1.09-.5928072-.06767506-1.1846474.13462267-1.612.551l-7 7c-.41825989.4261938-.62087306 1.0189568-.551 1.612.09136036.7383331.51338735 1.3951057 1.147 1.785l3 1.686 2.023 2.023-8.994 9c-1.56213741 1.5621374-1.56213741 4.0948626 0 5.657s4.0948626 1.5621374 5.657 0l8.994-8.995 2.024 2.024 1.72 3.06c.3916487.6060722 1.0333314 1.0057488 1.75 1.09.075.007.148.011.221.011.5200982.0048404 1.0206859-.1977698 1.391-.563l7-7c.4183498-.4257287.6210036-1.0182429.551-1.611-.0897228-.7420718-.5131648-1.4026412-1.15-1.794zm-7.854 1.944-2.829 2.829-8.485-8.486 5.657-5.657 8.485 8.485zm-15.521-8.517 6.962-6.977h.016c.1026077.00780363.1972609.05821279.261.139l1.382 2.455-6 6-2.405-1.347c-.0953018-.06859-.1700029-.1619663-.216-.27zm-.544 18.93c-.78120678.7812068-2.04779322.7812068-2.829 0s-.78120678-2.0477932 0-2.829l8.994-9 2.829 2.829zm16.138-3.4c-.1087959-.0003098-.2112238-.0513389-.277-.138l-1.382-2.461 3-3 3-3 2.4 1.347c.0961043.0701944.171711.164789.219.274z"/><path id="Shape" d="m48.856 33.2.944-.754c.5455625-.4370997.8233078-1.1273333.7325503-1.8204839-.0907576-.6931505-.5368448-1.2886093-1.1765503-1.5705161l-10.548-4.655c-.7085074-.3119903-1.5334352-.1870729-2.117808.3206959s-.8232231 1.3071815-.613192 2.0523041l3.014 10.677c.1820062.6452435.6751983 1.1563752 1.3135301 1.3613091s1.3368838.0764068 1.8604699-.3423091l1.888-1.511 3.856 4.365c.3650003.4143684.8850796.6593883 1.437.677h.061c.53054-.0008328 1.039212-.2114913 1.415-.586l1.415-1.414c.7421565-.7465364.7810138-1.9397599.089-2.733zm.652 6.8-4.486-5.079c-.3530164-.3996609-.9575275-.4520167-1.374-.119l-2.632 2.106-3.016-10.677 10.549 4.65-1.759 1.407c-.213281.1704492-.3475964.4206916-.3717699.6926427-.0241734.271951.0638974.5419611.2437699.7473573l4.259 4.858z"/><path id="Shape" d="m39 21c.5522847 0 1-.4477153 1-1v-3c0-.5522847-.4477153-1-1-1s-1 .4477153-1 1v3c0 .5522847.4477153 1 1 1z"/><path id="Shape" d="m43.707 22.707 2.5-2.5c.3789722-.3923789.3735524-1.0160848-.0121814-1.4018186s-1.0094397-.3911536-1.4018186-.0121814l-2.5 2.5c-.2599566.2510745-.3642126.6228779-.2726972.9725073.0915155.3496295.3645604.6226744.7141899.7141899.3496294.0915154.7214328-.0127406.9725073-.2726972z"/><path id="Shape" d="m30 7h2c.5522847 0 1-.44771525 1-1s-.4477153-1-1-1h-2c-.5522847 0-1 .44771525-1 1s.4477153 1 1 1z"/><path id="Shape" d="m54 5h-18c-.5522847 0-1 .44771525-1 1s.4477153 1 1 1h18c.5522847 0 1-.44771525 1-1s-.4477153-1-1-1z"/><path id="Shape" d="m32 41h-4c-.5522847 0-1 .4477153-1 1s.4477153 1 1 1h4c.5522847 0 1-.4477153 1-1s-.4477153-1-1-1z"/></g></g></svg>