<svg id="Capa_1" enable-background="new 0 0 512 512" height="80px" width="80px" fill="#3A2E7E" viewBox="0 0 512 512" xmlns="http://www.w3.org/2000/svg"><path d="m439.336 348.023v-33.432c0-6.663-5.421-12.084-12.084-12.084h-161.232v-30.395c70.511-3.904 126.678-62.488 126.678-133.949-.001-73.978-60.192-134.163-134.178-134.163-23.443 0-46.521 6.135-66.738 17.743-19.604 11.255-36.185 27.412-47.95 46.723-2.154 3.538-1.034 8.152 2.503 10.307 3.535 2.154 8.151 1.035 10.308-2.502 21.847-35.861 59.932-57.271 101.877-57.271 65.715 0 119.178 53.457 119.178 119.163 0 33.829-14.172 64.409-36.89 86.12-3-24.723-22.459-32.512-39.328-37.305-.146-.045-8.309-2.26-9.518-2.591-1.192-.321-2.233-1.987-3.058-3.761 17.777-12.3 30.959-33.105 30.959-51.29v-16.484c0-20.555-6.577-38.013-19.021-50.486-11.14-11.166-26.128-17.456-42.202-17.71-.08-.001-.158-.001-.238 0-16.087.255-31.083 6.544-42.226 17.71-12.447 12.472-19.026 29.93-19.026 50.487v16.484c0 18.184 13.182 38.991 30.958 51.29-.827 1.774-1.875 3.443-3.087 3.769-1.178.323-9.333 2.536-9.471 2.578-16.868 4.791-36.33 12.574-39.341 37.285-22.703-21.71-36.865-52.28-36.865-86.096 0-10.589 1.379-21.073 4.098-31.159 1.078-3.999-1.289-8.115-5.289-9.194-3.994-1.079-8.116 1.29-9.193 5.29-3.063 11.358-4.615 23.155-4.615 35.063 0 71.461 56.167 130.045 126.677 133.949v30.395h-166.274c-6.663 0-12.084 5.421-12.084 12.084v33.432c-40.697 3.795-72.664 38.125-72.664 79.793 0 44.182 35.962 80.126 80.164 80.126s80.163-35.944 80.163-80.126c0-41.668-31.966-75.998-72.663-79.793v-30.516h163.356v30.539c-14.507 1.336-28.231 6.533-40.06 15.256-3.334 2.458-4.043 7.154-1.585 10.488 2.459 3.333 7.155 4.042 10.487 1.584 11.254-8.299 24.621-12.686 38.657-12.686 35.916 0 65.136 29.229 65.136 65.155 0 14.783-4.955 28.424-13.28 39.37-3.577-11.405-10.859-21.429-20.753-28.369 4.44-6.237 7.063-13.853 7.063-22.075 0-21.042-17.121-38.162-38.166-38.162-21.044 0-38.165 17.12-38.165 38.162 0 8.216 2.619 15.827 7.053 22.061-9.903 6.94-17.19 16.968-20.77 28.378-8.326-10.944-13.281-24.584-13.281-39.364 0-10.15 2.249-19.847 6.684-28.819 1.835-3.713.313-8.211-3.4-10.047-3.715-1.835-8.212-.313-10.047 3.4-5.389 10.902-8.236 23.166-8.236 35.466 0 44.198 35.961 80.155 80.163 80.155 44.187 0 80.136-35.958 80.136-80.155 0-41.667-31.954-75.996-72.636-79.793v-30.545h158.316v30.516c-40.681 3.796-72.635 38.126-72.635 79.793 0 44.182 35.948 80.126 80.135 80.126 44.202 0 80.164-35.944 80.164-80.126 0-41.667-31.967-75.997-72.664-79.792zm-359.172 144.92c-14.7 0-28.275-4.895-39.189-13.132 1.149-12.641 8.413-24.01 19.407-30.444 5.772 3.512 12.545 5.537 19.782 5.537 7.231 0 13.999-2.022 19.768-5.529 11.001 6.441 18.27 17.806 19.42 30.437-10.914 8.236-24.489 13.131-39.188 13.131zm-23.166-76.202c0-12.771 10.393-23.162 23.166-23.162s23.165 10.391 23.165 23.162-10.392 23.162-23.165 23.162-23.166-10.39-23.166-23.162zm88.329 11.075c0 14.777-4.958 28.414-13.288 39.355-3.583-11.397-10.871-21.417-20.772-28.357 4.44-6.237 7.062-13.852 7.062-22.073 0-21.042-17.121-38.162-38.165-38.162-21.045 0-38.166 17.12-38.166 38.162 0 8.216 2.619 15.827 7.053 22.062-9.899 6.938-17.185 16.961-20.766 28.365-8.328-10.94-13.285-24.576-13.285-39.352 0-35.927 29.232-65.156 65.164-65.156 35.931.001 65.163 29.229 65.163 65.156zm113.193-34.208c12.773 0 23.166 10.391 23.166 23.162s-10.393 23.162-23.166 23.162-23.165-10.391-23.165-23.162 10.391-23.162 23.165-23.162zm0 99.392c-14.7 0-28.276-4.897-39.191-13.14 1.142-12.649 8.409-24.027 19.409-30.465 5.772 3.512 12.545 5.537 19.782 5.537 7.231 0 13.999-2.021 19.768-5.529 10.994 6.441 18.256 17.818 19.396 30.465-10.909 8.238-24.475 13.132-39.164 13.132zm0-433.344c20.237.374 41.832 14.194 45.725 43.53-2.475-1.308-4.195-3.064-6.053-4.959-4.098-4.181-9.709-9.907-21.313-6.925-2.699.702-5.009 1.322-7.018 1.862-6.007 1.614-9.022 2.424-11.342 2.424-2.326 0-5.315-.802-11.27-2.401-2.032-.545-4.374-1.174-7.136-1.89-11.579-2.979-17.196 2.748-21.294 6.929-1.857 1.896-3.578 3.652-6.053 4.96 3.896-29.336 25.505-43.156 45.754-43.53zm-46.372 69.681v-10.05c9.202-2.215 14-7.107 17.386-10.562 3.371-3.44 3.647-3.722 6.831-2.903 2.699.699 5 1.317 6.995 1.853 6.999 1.878 10.854 2.914 15.159 2.914 4.3 0 8.184-1.043 15.234-2.938 1.975-.53 4.244-1.14 6.878-1.825 3.196-.822 3.472-.543 6.846 2.9 3.385 3.455 8.184 8.347 17.385 10.562v10.05c0 16.559-16.911 37.904-35.485 44.785-8.028 2.98-13.718 2.979-21.748-.002-18.569-6.881-35.481-28.225-35.481-44.784zm69.654 66.354-19.791 11.62c-.095.056-.189.114-.281.174-3.197 2.071-3.255 2.069-6.448 0-.092-.06-.187-.118-.281-.174l-19.795-11.623c2.827-2.265 4.762-5.209 6.12-7.934.363.143.724.295 1.089.43 5.716 2.122 10.905 3.183 16.094 3.183 5.188 0 10.374-1.061 16.086-3.182.366-.136.729-.288 1.093-.432 1.356 2.728 3.289 5.673 6.114 7.938zm-91.008 35.398c0-17.969 9.684-23.884 25.977-28.829l30.498 17.907c4.036 2.592 7.636 3.888 11.236 3.888s7.2-1.296 11.236-3.888l30.498-17.907c16.294 4.945 25.978 10.86 25.978 28.829v5.087c-19.241 13.327-42.571 21.15-67.698 21.15-25.139 0-48.48-7.83-67.726-21.169v-5.068zm241.042 261.854c-14.688 0-28.253-4.891-39.161-13.124 1.146-12.639 8.405-24.007 19.393-30.444 5.769 3.507 12.537 5.529 19.768 5.529 7.237 0 14.01-2.025 19.782-5.537 10.994 6.435 18.258 17.804 19.407 30.444-10.914 8.237-24.489 13.132-39.189 13.132zm-23.165-76.202c0-12.771 10.392-23.162 23.165-23.162s23.166 10.391 23.166 23.162-10.393 23.162-23.166 23.162-23.165-10.39-23.165-23.162zm75.043 50.427c-3.581-11.405-10.867-21.428-20.766-28.365 4.435-6.234 7.053-13.846 7.053-22.062 0-21.042-17.121-38.162-38.166-38.162-21.044 0-38.165 17.12-38.165 38.162 0 8.222 2.623 15.838 7.063 22.075-9.891 6.938-17.17 16.958-20.749 28.357-8.327-10.941-13.284-24.579-13.284-39.357 0-35.927 29.22-65.156 65.135-65.156 35.932 0 65.164 29.229 65.164 65.156.001 14.776-4.956 28.412-13.285 39.352z"/></svg>