<?xml version="1.0" encoding="iso-8859-1"?>
<!-- Generator: Adobe Illustrator 19.0.0, SVG Export Plug-In . SVG Version: 6.00 Build 0)  -->
<svg height="80px" width="80px" fill="#3A2E7E" version="1.1" id="Capa_1" xmlns="http://www.w3.org/2000/svg" xmlns:xlink="http://www.w3.org/1999/xlink" x="0px" y="0px"
	 viewBox="0 0 512 512" style="enable-background:new 0 0 512 512;" xml:space="preserve">
<g>
	<g>
		<path d="M297.183,0c-31.299,0-56.765,25.466-56.765,56.765c0,31.299,25.466,56.765,56.765,56.765s56.765-25.466,56.765-56.765
			C353.948,25.466,328.481,0,297.183,0z M297.183,80.139c-12.889,0-23.374-10.485-23.374-23.374s10.485-23.374,23.374-23.374
			s23.374,10.485,23.374,23.374S310.072,80.139,297.183,80.139z"/>
	</g>
</g>
<g>
	<g>
		<path d="M454.122,137.461H140.243c-9.222,0-16.696,7.474-16.696,16.696v64.557h33.391v-47.861h280.487v47.861h33.391h0v-64.557
			C470.817,144.935,463.343,137.461,454.122,137.461z"/>
	</g>
</g>
<g>
	<g>
		<rect x="280.487" y="98.504" width="33.391" height="120.209"/>
	</g>
</g>
<g>
	<g>
		<path d="M297.183,199.235c-31.299,0-56.765,25.461-56.765,56.765c0,31.299,25.466,56.765,56.765,56.765
			s56.765-25.466,56.765-56.765C353.948,224.696,328.481,199.235,297.183,199.235z M297.183,279.374
			c-12.889,0-23.374-10.485-23.374-23.374s10.485-23.374,23.374-23.374s23.374,10.485,23.374,23.374
			S310.072,279.374,297.183,279.374z"/>
	</g>
</g>
<g>
	<g>
		<path d="M453.009,199.235c-31.299,0-56.765,25.461-56.765,56.765c0,31.299,25.466,56.765,56.765,56.765
			c31.299,0,56.765-25.466,56.765-56.765C509.774,224.696,484.307,199.235,453.009,199.235z M453.009,279.374
			c-12.889,0-23.374-10.485-23.374-23.374s10.485-23.374,23.374-23.374c12.889,0,23.374,10.485,23.374,23.374
			S465.898,279.374,453.009,279.374z"/>
	</g>
</g>
<g>
	<g>
		<path d="M141.356,199.235c-31.299,0-56.765,25.461-56.765,56.765c0,31.299,25.461,56.765,56.765,56.765
			c31.299,0,56.765-25.466,56.765-56.765C198.122,224.696,172.655,199.235,141.356,199.235z M141.356,279.374
			c-12.889,0-23.374-10.485-23.374-23.374s10.485-23.374,23.374-23.374S164.73,243.111,164.73,256S154.246,279.374,141.356,279.374z
			"/>
	</g>
</g>
<g>
	<g>
		<path d="M221.496,342.261H57.878c-9.222,0-16.696,7.474-16.696,16.696v59.548h33.391v-42.852H204.8v42.852h33.391v-59.548
			C238.191,349.735,230.717,342.261,221.496,342.261z"/>
	</g>
</g>
<g>
	<g>
		<path d="M220.383,398.47c-31.299,0-56.765,25.466-56.765,56.765S189.078,512,220.383,512c31.304,0,56.765-25.466,56.765-56.765
			S251.681,398.47,220.383,398.47z M220.383,478.609c-12.889,0-23.374-10.485-23.374-23.374c0-12.889,10.485-23.374,23.374-23.374
			c12.889,0,23.374,10.485,23.374,23.374C243.757,468.124,233.272,478.609,220.383,478.609z"/>
	</g>
</g>
<g>
	<g>
		<path d="M58.991,398.47c-31.299,0-56.765,25.466-56.765,56.765S27.692,512,58.991,512c31.299,0,56.765-25.466,56.765-56.765
			S90.29,398.47,58.991,398.47z M58.991,478.609c-12.889,0-23.374-10.485-23.374-23.374c0-12.889,10.485-23.374,23.374-23.374
			c12.889,0,23.374,10.485,23.374,23.374C82.365,468.124,71.88,478.609,58.991,478.609z"/>
	</g>
</g>
<g>
	<g>
		<rect x="122.991" y="297.739" width="33.391" height="61.217"/>
	</g>
</g>
<g>
</g>
<g>
</g>
<g>
</g>
<g>
</g>
<g>
</g>
<g>
</g>
<g>
</g>
<g>
</g>
<g>
</g>
<g>
</g>
<g>
</g>
<g>
</g>
<g>
</g>
<g>
</g>
<g>
</g>
</svg>
