<?xml version="1.0" encoding="utf-8"?>
<!-- Generator: Adobe Illustrator 24.1.1, SVG Export Plug-In . SVG Version: 6.00 Build 0)  -->
<svg version="1.1" id="Capa_1" xmlns="http://www.w3.org/2000/svg" xmlns:xlink="http://www.w3.org/1999/xlink" x="0px" y="0px"
	 viewBox="0 0 362.1 362.1" style="enable-background:new 0 0 362.1 362.1;" xml:space="preserve">
<style type="text/css">
	.st0{fill:#666666;}
	.st1{fill:#E41F28;}
</style>
<g>
	<path class="st0" d="M345.4,117.6c-2.9-2.9-7.7-2.9-10.6,0l-5.2,5.2V80.6C329.6,36.1,293.4,0,249,0c-43,0-78.3,33.9-80.5,76.4
		h-48.6c-4.1,0-7.5,3.4-7.5,7.5v81.3H21.9c-4.1,0-7.5,3.4-7.5,7.5v181.8c0,0.1,0,0.2,0,0.3c0,0.1,0,0.2,0,0.3c0,0.2,0.1,0.5,0.1,0.7
		c0,0,0,0.1,0,0.1c0.1,0.3,0.1,0.6,0.2,0.9c0,0,0,0.1,0,0.1c0.1,0.2,0.2,0.5,0.3,0.7c0,0.1,0.1,0.1,0.1,0.2c0.1,0.2,0.2,0.4,0.3,0.6
		c0,0,0,0.1,0.1,0.1c0,0,0,0,0,0c0.2,0.2,0.3,0.5,0.5,0.7c0,0,0,0,0.1,0.1c0.2,0.2,0.3,0.4,0.5,0.5c0.1,0.1,0.1,0.1,0.2,0.2
		c0.2,0.1,0.3,0.3,0.5,0.4c0.1,0,0.1,0.1,0.2,0.1c0.5,0.3,1,0.6,1.5,0.8c0.1,0,0.1,0,0.2,0.1c0.2,0.1,0.4,0.2,0.7,0.2
		c0.1,0,0.2,0,0.2,0.1c0.2,0.1,0.4,0.1,0.6,0.1c0.1,0,0.2,0,0.2,0c0.3,0,0.6,0.1,0.9,0.1h237.4c0.3,0,0.7,0,1-0.1c0.1,0,0.2,0,0.2,0
		c0.3,0,0.6-0.1,0.8-0.2c0,0,0.1,0,0.1,0c0.3-0.1,0.6-0.2,0.9-0.3c0,0,0.1,0,0.1-0.1c0.3-0.1,0.5-0.3,0.7-0.4c0,0,0.1-0.1,0.1-0.1
		c0.3-0.2,0.5-0.4,0.8-0.6c0,0,0.1-0.1,0.1-0.1c0.2-0.2,0.4-0.4,0.6-0.6c0-0.1,0.1-0.1,0.1-0.2c0.2-0.2,0.4-0.5,0.6-0.8
		c0,0,0-0.1,0.1-0.1c0.2-0.2,0.3-0.5,0.4-0.8c0,0,0-0.1,0.1-0.1l57.4-124.4c1.1-2.3,0.9-5-0.5-7.2c-1.4-2.2-3.8-3.5-6.3-3.5h-49.9
		v-49.9c0-4.1-3.4-7.5-7.5-7.5h-19.9V83.9c0-4.1-3.4-7.5-7.5-7.5h-48.4C185.7,42.2,214.2,15,249,15c36.2,0,65.6,29.4,65.6,65.6v42.3
		l-5.2-5.2c-2.9-2.9-7.7-2.9-10.6,0c-2.9,2.9-2.9,7.7,0,10.6l18,18c0.2,0.2,0.4,0.3,0.6,0.5c0.1,0.1,0.2,0.1,0.2,0.2
		c0.1,0.1,0.2,0.2,0.4,0.3c0.1,0.1,0.2,0.1,0.3,0.2c0.1,0.1,0.2,0.1,0.3,0.2c0.1,0.1,0.2,0.1,0.3,0.2c0.1,0.1,0.2,0.1,0.3,0.2
		c0.1,0,0.2,0.1,0.3,0.1c0.1,0,0.2,0.1,0.4,0.1c0.1,0,0.2,0.1,0.3,0.1c0.1,0,0.3,0.1,0.4,0.1c0.1,0,0.3,0,0.4,0.1
		c0.1,0,0.2,0,0.3,0.1c0.2,0,0.5,0,0.7,0s0.5,0,0.7,0c0.1,0,0.2,0,0.3-0.1c0.1,0,0.3,0,0.4-0.1c0.1,0,0.3-0.1,0.4-0.1
		c0.1,0,0.2-0.1,0.3-0.1c0.1,0,0.2-0.1,0.4-0.1c0.1,0,0.2-0.1,0.3-0.1c0.1,0,0.2-0.1,0.3-0.2c0.1-0.1,0.2-0.1,0.3-0.2
		c0.1-0.1,0.2-0.1,0.3-0.2c0.1-0.1,0.2-0.1,0.3-0.2c0.1-0.1,0.2-0.2,0.4-0.3c0.1-0.1,0.2-0.1,0.2-0.2c0.2-0.2,0.4-0.3,0.6-0.5l18-18
		C348.4,125.3,348.4,120.5,345.4,117.6z M112.4,180.3v42.4H79.3c-2.9,0-5.6,1.7-6.8,4.4l-43.1,93.4V180.3H112.4z M254.5,347.1H33.7
		l50.5-109.4H305L254.5,347.1z M251.8,180.3v42.4h-12.4v-42.4H251.8z M224.4,172.7C224.4,172.7,224.4,172.8,224.4,172.7
		C224.4,172.8,224.4,172.8,224.4,172.7v49.9h-97V91.4h97V172.7z"/>
	<path class="st1" d="M149.9,127.4h52c4.1,0,7.5-3.4,7.5-7.5c0-4.1-3.4-7.5-7.5-7.5h-52c-4.1,0-7.5,3.4-7.5,7.5
		C142.4,124.1,145.8,127.4,149.9,127.4z"/>
	<path class="st1" d="M149.9,166.4h52c4.1,0,7.5-3.4,7.5-7.5s-3.4-7.5-7.5-7.5h-52c-4.1,0-7.5,3.4-7.5,7.5
		C142.4,163.1,145.8,166.4,149.9,166.4z"/>
	<path class="st1" d="M149.9,205.4h52c4.1,0,7.5-3.4,7.5-7.5s-3.4-7.5-7.5-7.5h-52c-4.1,0-7.5,3.4-7.5,7.5
		C142.4,202.1,145.8,205.4,149.9,205.4z"/>
</g>
</svg>
