<?xml version="1.0" encoding="utf-8"?>
<!-- Generator: Adobe Illustrator 24.1.1, SVG Export Plug-In . SVG Version: 6.00 Build 0)  -->
<svg version="1.1" id="Layer_5" xmlns="http://www.w3.org/2000/svg" xmlns:xlink="http://www.w3.org/1999/xlink" x="0px" y="0px"
	 viewBox="0 0 512 512" style="enable-background:new 0 0 512 512;" xml:space="preserve">
<style type="text/css">
	.st0{fill:#666666;}
	.st1{fill:#E41F28;}
</style>
<path class="st0" d="M504,177.8l-19.3-4.8l10.2-17.1L480,140.9V8H256v128h-18.8c1.8-7.8,2.8-15.8,2.8-24C240,54.7,193.3,8,136,8
	S32,54.7,32,112.2c0,8.9,1.2,17.6,3.4,26C19.5,143.6,8,158.6,8,176v192c0,22.1,17.9,40,40,40h104v16h-30.1
	c-9.2,0-17.4,5.1-21.5,13.3L88,462.1V504h224v-41.9l-12.4-24.8c-4.1-8.2-12.3-13.3-21.5-13.3H248v-16h104c22.1,0,40-17.9,40-40v-56
	h38.2l4.8-19.3l17.1,10.2l42.8-42.8l-10.2-17.1l19.3-4.8L504,177.8z M272,24h192v100.9l-11.8-11.8l-17.1,10.2l-4.8-19.3h-60.5
	l-4.8,19.3l-17.1-10.2L324.9,136H272L272,24z M308.9,152l-3.8,3.8l11.4,19l-14.6,9L256,184l0,16l104.4-0.2l1.9-5.3
	c6.8-18.9,26.2-29.6,46-25.6c15.2,3.1,27.5,15.3,30.7,30.5c2.5,12.2-0.4,24.5-8,33.9S412.1,248,400,248c-16.9,0-32.1-10.7-37.7-26.7
	l-1.9-5.3H280c-13.2,0-24,10.8-24,24v48c0,4.4-3.6,8-8,8s-8-3.6-8-8v-16c0-13.2-10.8-24-24-24s-24,10.8-24,24v16c0,4.4-3.6,8-8,8
	h-32c-4.4,0-8-3.6-8-8v-8.7c22.7-3.8,40-23.5,40-47.3v-20.7l25.5-25.5c9.8-9.8,17.4-21.3,22.6-33.8H308.9z M104,216h64v16
	c0,17.6-14.4,32-32,32s-32-14.4-32-32V216z M112,120H96c-8.8,0-16-7.2-16-16s7.2-16,16-16s16,7.2,16,16V120z M144,200h-16v-64h16
	V200z M136,24c48.5,0,88,39.5,88,88.2c0,23.5-9.2,45.6-25.8,62.2L172.7,200H160v-64h16c17.6,0,32-14.4,32-32s-14.4-32-32-32
	s-32,14.4-32,32v16h-16v-16c0-17.6-14.4-32-32-32s-32,14.4-32,32s14.4,32,32,32h16v64H99.3l-25.5-25.5C57.2,157.8,48,135.7,48,112
	C48,63.5,87.5,24,136,24z M160,120v-16c0-8.8,7.2-16,16-16s16,7.2,16,16s-7.2,16-16,16H160z M121.9,440H152v16h-43.1l5.8-11.6
	C116.1,441.7,118.8,440,121.9,440z M104,488v-16h192v16H104z M278.1,440c3.1,0,5.8,1.7,7.2,4.4l5.8,11.6H248v-16H278.1z M232,456
	h-64v-48h64V456z M352,392H48c-13.2,0-24-10.8-24-24v-24h96v8c0,13.2,10.8,24,24,24h112c13.2,0,24-10.8,24-24v-8h96v24
	C376,381.2,365.2,392,352,392z M264,344v8c0,4.4-3.6,8-8,8h-24v-16H264z M216,360h-32v-16h32V360z M168,360h-24c-4.4,0-8-3.6-8-8v-8
	h32V360z M376,328H24V176c0-10.5,6.9-19.5,16.5-22.7c5.1,12,12.5,23,22,32.5L88,211.3V232c0,23.7,17.3,43.4,40,47.3v8.7
	c0,13.2,10.8,24,24,24h32c13.2,0,24-10.8,24-24v-16c0-4.4,3.6-8,8-8s8,3.6,8,8v16c0,13.2,10.8,24,24,24s24-10.8,24-24v-48
	c0-4.4,3.6-8,8-8h21.7l14.8,9.1l-11.4,19l42.8,42.8l17.1-10.2l4.8,19.3h6.2L376,328z M488,225.8l-15.6,3.9l-4.3,1.6l-3.7,9.1
	l10.4,17.3l-25.1,25.1l-17.3-10.4l-9.8,4l-4.9,19.6h-35.5l-3.9-15.6l-1.6-4.3l-9.1-3.7l-17.3,10.4l-25.1-25.1l10.4-17.3l-3.4-8.4
	l0,0h17.3c9.2,19.4,28.8,32,50.6,32c16.9,0,32.8-7.5,43.5-20.7c10.7-13.2,14.8-30.4,11.3-47.3c-4.4-21.3-21.8-38.6-43.2-42.9
	c-25.9-5.2-51.1,7.6-62.1,30.6l-17.7,0l0.6-0.5l3.2-7.8l-10.4-17.3l25.1-25.1l17.3,10.4l9.8-4l4.9-19.6h35.5l4.9,19.6l9.8,4
	l17.3-10.4l25.1,25.1l-10.4,17.3l4,9.8l19.6,4.9V225.8z"/>
<path class="st1" d="M224,184h16v16h-16V184z"/>
<path class="st1" d="M288,40h16v16h-16V40z"/>
<path class="st1" d="M320,40h128v16H320V40z"/>
<path class="st1" d="M288,72h160v16H288V72z"/>
<path class="st1" d="M288,104h16v16h-16V104z"/>
<path class="st1" d="M320,104h16v16h-16V104z"/>
<path class="st1" d="M40,264h16v16H40V264z"/>
<path class="st1" d="M40,232h16v16H40V232z"/>
<path class="st1" d="M40,296h16v16H40V296z"/>
</svg>
